<?xml version="1.0" encoding="utf-8"?>
<!-- Generator: Adobe Illustrator 26.0.0, SVG Export Plug-In . SVG Version: 6.00 Build 0)  -->
<svg version="1.1" id="Layer_2" xmlns="http://www.w3.org/2000/svg" xmlns:xlink="http://www.w3.org/1999/xlink" x="0px" y="0px"
	 viewBox="0 0 1080 1080" style="enable-background:new 0 0 1080 1080;" xml:space="preserve">
<style type="text/css">
	.st0{fill:#FFCE00;}
	.st1{clip-path:url(#SVGID_00000020365642155673059360000003239504654356610703_);}
</style>
<g>
	<polygon points="637.63,585.58 637.63,626.48 625.95,626.48 585.04,589.12 585.04,626.48 581.16,626.48 581.16,585.58 
		592.84,585.58 633.75,622.94 633.75,585.58 	"/>
	<path d="M550.42,585.58h-8.78l-24.1,40.9h5.26l8.54-14.49h26.07l8.56,14.49h8.62L550.42,585.58z M533.28,608.69l11.07-18.79
		l11.11,18.79H533.28z"/>
	<path d="M467.18,606.03c0,9.15,7.42,16.56,16.56,16.56h31.27v3.89h-36.34c-4.47,0-8.62-1.44-11.99-3.89
		c-5.12-3.71-8.46-9.75-8.46-16.56c0-6.82,3.34-12.86,8.47-16.57c3.37-2.44,7.51-3.88,11.98-3.88h36.34v3.88h-31.27
		C474.6,589.46,467.18,596.88,467.18,606.03z"/>
	<path class="st0" d="M450.32,586.18v40.3h-8.96v-40.31c1.37,0.61,2.89,0.94,4.48,0.94C447.43,587.11,448.95,586.78,450.32,586.18z"
		/>
	<circle class="st0" cx="445.84" cy="575.9" r="6.21"/>
	<g>
		<defs>
			<path id="SVGID_1_" d="M526.85,473.86c-18.66,4.71-36.16,9.42-53.49,14.2c-5.07,1.4-15.9,4.52-25.1,13.69
				c-3.69,3.67-8.27,8.37-7.86,14.2c0.42,5.93,7.5,9.71,18.51,15.97c5.95,3.39,10.71,5.46,12.17,6.08
				c26.82,11.56,29.72,13.1,32.96,13.44c1.91,0.2,14.06,1.44,21.8-3.55C539.76,538.91,541.51,508.41,526.85,473.86z"/>
		</defs>
		<clipPath id="SVGID_00000099632791670715665830000007427872871357222569_">
			<use xlink:href="#SVGID_1_"  style="overflow:visible;"/>
		</clipPath>
		<g style="clip-path:url(#SVGID_00000099632791670715665830000007427872871357222569_);">
			<path d="M475.63,499.8v13.78h-2.19v-10.97l-2.88,0.81v-2.2l2.88-0.81L475.63,499.8z M490.35,507.95v-1.74
				c0-3.24-2.63-5.87-5.96-5.87c-3.24,0-5.87,2.63-5.87,5.87v1.74c0,3.24,2.63,5.87,5.87,5.87h0.1
				C487.71,513.82,490.35,511.19,490.35,507.95z M488.15,506.21v1.74c0,2.02-1.65,3.67-3.67,3.67h-0.1c-2.02,0-3.67-1.65-3.67-3.67
				v-1.74c0-2.02,1.65-3.67,3.76-3.67C486.5,502.54,488.15,504.18,488.15,506.21z"/>
			<path d="M454.84,499.8v13.78h-2.19v-10.97l-2.88,0.81v-2.2l2.88-0.81L454.84,499.8z M469.56,507.95v-1.74
				c0-3.24-2.63-5.87-5.96-5.87c-3.24,0-5.87,2.63-5.87,5.87v1.74c0,3.24,2.63,5.87,5.87,5.87h0.1
				C466.93,513.82,469.56,511.19,469.56,507.95z M467.36,506.21v1.74c0,2.02-1.65,3.67-3.67,3.67h-0.1c-2.02,0-3.67-1.65-3.67-3.67
				v-1.74c0-2.02,1.65-3.67,3.76-3.67C465.71,502.54,467.36,504.18,467.36,506.21z"/>
			<path d="M496.08,499.8v13.78h-2.19v-10.97l-2.88,0.81v-2.2l2.88-0.81L496.08,499.8z M510.8,507.95v-1.74
				c0-3.24-2.63-5.87-5.96-5.87c-3.24,0-5.87,2.63-5.87,5.87v1.74c0,3.24,2.63,5.87,5.87,5.87h0.1
				C508.16,513.82,510.8,511.19,510.8,507.95z M508.6,506.21v1.74c0,2.02-1.65,3.67-3.67,3.67h-0.1c-2.02,0-3.67-1.65-3.67-3.67
				v-1.74c0-2.02,1.65-3.67,3.76-3.67C506.95,502.54,508.6,504.18,508.6,506.21z"/>
			<path d="M496.89,533.07v13.78h-2.19v-10.97l-2.88,0.81v-2.2l2.88-0.81L496.89,533.07z M511.61,541.22v-1.74
				c0-3.24-2.63-5.87-5.96-5.87c-3.24,0-5.87,2.63-5.87,5.87v1.74c0,3.24,2.63,5.87,5.87,5.87h0.1
				C508.97,547.09,511.61,544.45,511.61,541.22z M509.41,539.47v1.74c0,2.02-1.65,3.67-3.67,3.67h-0.1c-2.02,0-3.67-1.65-3.67-3.67
				v-1.74c0-2.02,1.65-3.67,3.76-3.67C507.76,535.81,509.41,537.45,509.41,539.47z"/>
			<path d="M476.1,533.07v13.78h-2.19v-10.97l-2.88,0.81v-2.2l2.88-0.81L476.1,533.07z M490.82,541.22v-1.74
				c0-3.24-2.63-5.87-5.96-5.87c-3.24,0-5.87,2.63-5.87,5.87v1.74c0,3.24,2.63,5.87,5.87,5.87h0.1
				C488.19,547.09,490.82,544.45,490.82,541.22z M488.62,539.47v1.74c0,2.02-1.65,3.67-3.67,3.67h-0.1c-2.02,0-3.67-1.65-3.67-3.67
				v-1.74c0-2.02,1.65-3.67,3.76-3.67C486.97,535.81,488.62,537.45,488.62,539.47z"/>
			<path d="M486.29,516.43v13.78h-2.19v-10.97l-2.88,0.81v-2.2l2.88-0.81L486.29,516.43z M501.01,524.58v-1.74
				c0-3.24-2.63-5.87-5.96-5.87c-3.24,0-5.87,2.63-5.87,5.87v1.74c0,3.24,2.63,5.87,5.87,5.87h0.1
				C498.38,530.45,501.01,527.82,501.01,524.58z M498.81,522.84v1.74c0,2.02-1.65,3.67-3.67,3.67h-0.1c-2.02,0-3.67-1.65-3.67-3.67
				v-1.74c0-2.02,1.65-3.67,3.76-3.67C497.16,519.17,498.81,520.82,498.81,522.84z"/>
			<path d="M465.5,516.43v13.78h-2.19v-10.97l-2.88,0.81v-2.2l2.88-0.81L465.5,516.43z M480.22,524.58v-1.74
				c0-3.24-2.63-5.87-5.96-5.87c-3.24,0-5.87,2.63-5.87,5.87v1.74c0,3.24,2.63,5.87,5.87,5.87h0.1
				C477.59,530.45,480.22,527.82,480.22,524.58z M478.02,522.84v1.74c0,2.02-1.65,3.67-3.67,3.67h-0.1c-2.02,0-3.67-1.65-3.67-3.67
				v-1.74c0-2.02,1.65-3.67,3.76-3.67C476.38,519.17,478.02,520.82,478.02,522.84z"/>
			<path d="M506.74,516.43v13.78h-2.19v-10.97l-2.88,0.81v-2.2l2.88-0.81L506.74,516.43z M521.46,524.58v-1.74
				c0-3.24-2.63-5.87-5.96-5.87c-3.24,0-5.87,2.63-5.87,5.87v1.74c0,3.24,2.63,5.87,5.87,5.87h0.1
				C518.83,530.45,521.46,527.82,521.46,524.58z M519.26,522.84v1.74c0,2.02-1.65,3.67-3.67,3.67h-0.1c-2.02,0-3.67-1.65-3.67-3.67
				v-1.74c0-2.02,1.65-3.67,3.76-3.67C517.61,519.17,519.26,520.82,519.26,522.84z"/>
			<path d="M484.86,483.17v13.78h-2.19v-10.97l-2.88,0.81v-2.2l2.88-0.81L484.86,483.17z M499.57,491.32v-1.74
				c0-3.24-2.63-5.87-5.96-5.87c-3.24,0-5.87,2.63-5.87,5.87v1.74c0,3.24,2.63,5.87,5.87,5.87h0.1
				C496.94,497.19,499.57,494.55,499.57,491.32z M497.37,489.57v1.74c0,2.02-1.65,3.67-3.67,3.67h-0.1c-2.02,0-3.67-1.65-3.67-3.67
				v-1.74c0-2.02,1.65-3.67,3.76-3.67C495.73,485.9,497.37,487.55,497.37,489.57z"/>
			<path d="M464.07,483.17v13.78h-2.19v-10.97l-2.88,0.81v-2.2l2.88-0.81L464.07,483.17z M478.78,491.32v-1.74
				c0-3.24-2.63-5.87-5.96-5.87c-3.24,0-5.87,2.63-5.87,5.87v1.74c0,3.24,2.63,5.87,5.87,5.87h0.1
				C476.15,497.19,478.78,494.55,478.78,491.32z M476.58,489.57v1.74c0,2.02-1.65,3.67-3.67,3.67h-0.1c-2.02,0-3.67-1.65-3.67-3.67
				v-1.74c0-2.02,1.65-3.67,3.76-3.67C474.94,485.9,476.58,487.55,476.58,489.57z"/>
			<path d="M505.31,483.17v13.78h-2.19v-10.97l-2.88,0.81v-2.2l2.88-0.81L505.31,483.17z M520.02,491.32v-1.74
				c0-3.24-2.63-5.87-5.96-5.87c-3.24,0-5.87,2.63-5.87,5.87v1.74c0,3.24,2.63,5.87,5.87,5.87h0.1
				C517.39,497.19,520.02,494.55,520.02,491.32z M517.82,489.57v1.74c0,2.02-1.65,3.67-3.67,3.67h-0.1c-2.02,0-3.67-1.65-3.67-3.67
				v-1.74c0-2.02,1.65-3.67,3.76-3.67C516.18,485.9,517.82,487.55,517.82,489.57z"/>
		</g>
	</g>
	<g>
		<path class="st0" d="M568.54,516.04c0,20.87-16.92,37.79-37.79,37.79c-20.88,0-37.79-16.92-37.79-37.79
			c0-20.87,16.91-37.79,37.79-37.79c3.76,0,7.4,0.55,10.84,1.58c-3.21,1.7-5.38,5.07-5.38,8.95c0,1.19,0.2,2.32,0.57,3.38
			c1.39,3.94,5.15,6.77,9.57,6.77c0.65,0,1.3-0.06,1.92-0.19c4.69-0.9,8.23-5.01,8.23-9.96c0-0.14,0-0.27-0.01-0.41
			C563.9,495.28,568.54,505.12,568.54,516.04z"/>
		<path d="M555.37,516.04c0,13.59-11.03,24.62-24.62,24.62s-24.62-11.03-24.62-24.62s11.03-24.62,24.62-24.62
			c2.08,0,4.09,0.26,6.03,0.74c1.39,3.94,5.15,6.77,9.57,6.77c0.65,0,1.3-0.06,1.92-0.19C552.65,503.19,555.37,509.3,555.37,516.04z
			"/>
	</g>
	<g>
		<polygon class="st0" points="522.95,512.7 512.33,512.7 512.33,508.7 520.77,508.7 526.51,499.75 597.84,499.75 604.23,489.8 
			637.13,489.8 637.13,493.8 606.42,493.8 600.02,503.75 528.7,503.75 		"/>
	</g>
	<g>
		<polygon class="st0" points="544.92,490.76 534.3,490.76 534.3,486.76 542.74,486.76 548.48,477.81 614.99,477.81 614.99,481.81 
			550.67,481.81 		"/>
	</g>
	<path class="st0" d="M507.66,516.5c3.19,0,5.79-2.6,5.79-5.79s-2.6-5.79-5.79-5.79c-3.19,0-5.79,2.6-5.79,5.79
		S504.47,516.5,507.66,516.5C510.86,516.5,504.47,516.5,507.66,516.5z M507.66,507.3c1.88,0,3.4,1.53,3.4,3.4s-1.53,3.4-3.4,3.4
		c-1.88,0-3.4-1.53-3.4-3.4S505.79,507.3,507.66,507.3C509.54,507.3,505.79,507.3,507.66,507.3z"/>
	<g>
		<polygon class="st0" points="530.9,525.42 514.68,525.42 514.68,521.42 528.71,521.42 534.46,512.46 616.2,512.46 622.01,503.43 
			625.37,505.6 618.39,516.46 536.64,516.46 		"/>
	</g>
	<path class="st0" d="M510.05,529.21c3.19,0,5.79-2.6,5.79-5.79s-2.6-5.79-5.79-5.79c-3.19,0-5.79,2.6-5.79,5.79
		S506.86,529.21,510.05,529.21C513.25,529.21,506.86,529.21,510.05,529.21z M510.05,520.02c1.88,0,3.4,1.53,3.4,3.4
		s-1.53,3.4-3.4,3.4c-1.88,0-3.4-1.53-3.4-3.4S508.18,520.02,510.05,520.02C511.93,520.02,508.18,520.02,510.05,520.02z"/>
	<g>
		<g>
			<polygon class="st0" points="573.91,536.21 536.06,536.21 536.06,532.21 571.72,532.21 577.47,523.25 612.37,523.25 
				612.37,527.25 579.66,527.25 			"/>
		</g>
	</g>
	<g>
		<polygon class="st0" points="587.6,545.7 549.75,545.7 549.75,541.7 585.41,541.7 590.57,533.67 593.94,535.83 		"/>
	</g>
	<g>
		<polygon class="st0" points="518.78,532.9 505.72,532.9 505.72,536.9 516.59,536.9 521.75,544.94 525.11,542.78 		"/>
	</g>
	<path class="st0" d="M531.43,540c3.19,0,5.79-2.6,5.79-5.79s-2.6-5.79-5.79-5.79c-3.19,0-5.79,2.6-5.79,5.79S528.24,540,531.43,540
		C534.63,540,528.24,540,531.43,540z M531.43,530.81c1.88,0,3.4,1.53,3.4,3.4s-1.53,3.4-3.4,3.4s-3.4-1.53-3.4-3.4
		S529.56,530.81,531.43,530.81S529.56,530.81,531.43,530.81z"/>
	<circle cx="618.83" cy="479.69" r="6.27"/>
	<circle cx="641.23" cy="491.73" r="6.27"/>
	<circle cx="624.81" cy="502.92" r="6.27"/>
	<circle cx="613" cy="525.15" r="6.27"/>
	<circle cx="591.89" cy="534.97" r="6.27"/>
	<g>
		<path d="M578.14,478.08c-3.02-0.71-6.05-1.34-9.09-1.81c-3.04-0.47-6.1-0.81-9.11-1c-3.03-0.15-6.06-0.16-9.09-0.04
			c-3.02,0.13-6.04,0.38-9.05,0.7c-6.02,0.71-12.01,1.7-17.93,3c-6.01,1.27-11.89,2.65-17.66,4.37
			c-11.55,3.37-22.66,7.87-33.11,13.5c-5.22,2.82-10.22,6.01-15.08,9.36c-2.41,1.7-4.78,3.48-7.08,5.31
			c-0.01,0.01-0.02,0.02-0.03,0.02c1.81,1.68,3.56,3.42,5.31,5.19c1.81,1.83,3.69,3.62,5.62,5.34c1.92,1.75,3.87,3.46,5.9,5.1
			c4.01,3.32,8.21,6.46,12.64,9.29c4.4,2.87,9.01,5.5,13.82,7.76c9.59,4.56,19.98,7.73,30.69,9.2c10.7,1.47,21.66,1.57,32.55,0.31
			c-10.68,2.43-21.75,3.52-32.85,3.11c-11.08-0.45-22.24-2.02-33.18-5.03c-10.95-2.93-21.61-7.39-31.6-13.16
			c-2.49-1.46-4.92-3.01-7.32-4.63c-2.38-1.63-4.71-3.35-6.99-5.13c-2.29-1.79-4.46-3.71-6.46-5.81c-2-2.1-3.86-4.34-5.38-6.84
			l-0.56-0.91c-1.97-3.23-1.32-7.32,1.33-9.8c2.37-2.22,4.99-4.14,7.64-5.99c2.67-1.84,5.38-3.6,8.14-5.28
			c5.56-3.3,11.23-6.39,17.1-9.06c11.72-5.34,24.03-9.27,36.52-11.68c6.25-1.21,12.54-2.06,18.74-2.71
			c6.29-0.64,12.62-0.99,18.96-0.88c6.32,0.13,12.67,0.7,18.87,2.05c3.11,0.68,6.12,1.59,9.08,2.62
			C572.44,475.58,575.34,476.74,578.14,478.08z"/>
	</g>
</g>
</svg>
