<svg id="Layer_2" data-name="Layer 2" xmlns="http://www.w3.org/2000/svg" xmlns:xlink="http://www.w3.org/1999/xlink" viewBox="0 0 215.55 156.62"><defs><style>.cls-1{fill:none;}.cls-2{fill:#ffce00;}.cls-3{clip-path:url(#clip-path);}</style><clipPath id="clip-path" transform="translate(-431.95 -469.86)"><path class="cls-1" d="M526.85,473.86c-18.67,4.7-36.17,9.42-53.5,14.2-5.06,1.39-15.89,4.51-25.1,13.69-3.68,3.67-8.27,8.37-7.86,14.19s7.51,9.71,18.51,16A124.78,124.78,0,0,0,471.07,538c26.82,11.56,29.72,13.1,33,13.44,1.91.19,14.06,1.44,21.8-3.55C539.76,538.91,541.51,508.41,526.85,473.86Z"/></clipPath></defs><polygon points="205.68 115.72 205.68 156.62 194 156.62 153.09 119.26 153.09 156.62 149.21 156.62 149.21 115.72 160.89 115.72 201.8 153.08 201.8 115.72 205.68 115.72"/><path d="M550.42,585.58h-8.78l-24.1,40.9h5.26L531.34,612h26.07L566,626.48h8.62Zm-17.14,23.11,11.07-18.79,11.11,18.79Z" transform="translate(-431.95 -469.86)"/><path d="M467.18,606a16.56,16.56,0,0,0,16.56,16.56H515v3.89H478.67a20.45,20.45,0,0,1,0-40.9H515v3.88H483.74A16.57,16.57,0,0,0,467.18,606Z" transform="translate(-431.95 -469.86)"/><path class="cls-2" d="M450.32,586.18v40.3h-9V586.17a11,11,0,0,0,4.48.94A11.15,11.15,0,0,0,450.32,586.18Z" transform="translate(-431.95 -469.86)"/><circle class="cls-2" cx="13.89" cy="106.04" r="6.21"/><g class="cls-3"><path d="M475.63,499.8v13.78h-2.19v-11l-2.88.81v-2.2l2.88-.81ZM490.35,508v-1.74a5.92,5.92,0,0,0-11.84,0V508a5.88,5.88,0,0,0,5.87,5.87h.1A5.88,5.88,0,0,0,490.35,508Zm-2.2-1.74V508a3.68,3.68,0,0,1-3.67,3.67h-.1a3.68,3.68,0,0,1-3.67-3.67v-1.74a3.72,3.72,0,0,1,7.44,0Z" transform="translate(-431.95 -469.86)"/><path d="M454.84,499.8v13.78h-2.19v-11l-2.88.81v-2.2l2.88-.81ZM469.56,508v-1.74a5.92,5.92,0,0,0-11.84,0V508a5.88,5.88,0,0,0,5.87,5.87h.1A5.87,5.87,0,0,0,469.56,508Zm-2.2-1.74V508a3.68,3.68,0,0,1-3.67,3.67h-.1a3.68,3.68,0,0,1-3.67-3.67v-1.74a3.72,3.72,0,0,1,7.44,0Z" transform="translate(-431.95 -469.86)"/><path d="M496.08,499.8v13.78h-2.19v-11l-2.88.81v-2.2l2.88-.81ZM510.8,508v-1.74a5.92,5.92,0,0,0-11.84,0V508a5.88,5.88,0,0,0,5.87,5.87h.1A5.88,5.88,0,0,0,510.8,508Zm-2.2-1.74V508a3.68,3.68,0,0,1-3.67,3.67h-.1a3.68,3.68,0,0,1-3.67-3.67v-1.74a3.72,3.72,0,0,1,7.44,0Z" transform="translate(-431.95 -469.86)"/><path d="M496.89,533.07v13.78H494.7v-11l-2.88.81v-2.2l2.88-.81Zm14.72,8.15v-1.75a5.92,5.92,0,0,0-11.84,0v1.75a5.89,5.89,0,0,0,5.87,5.87h.1A5.89,5.89,0,0,0,511.61,541.22Zm-2.2-1.75v1.75a3.68,3.68,0,0,1-3.67,3.67h-.1a3.68,3.68,0,0,1-3.67-3.67v-1.75a3.72,3.72,0,0,1,7.44,0Z" transform="translate(-431.95 -469.86)"/><path d="M476.1,533.07v13.78h-2.19v-11l-2.88.81v-2.2l2.88-.81Zm14.72,8.15v-1.75a5.92,5.92,0,0,0-11.83,0v1.75a5.88,5.88,0,0,0,5.86,5.87h.1A5.88,5.88,0,0,0,490.82,541.22Zm-2.2-1.75v1.75a3.68,3.68,0,0,1-3.67,3.67h-.1a3.67,3.67,0,0,1-3.66-3.67v-1.75a3.72,3.72,0,0,1,7.43,0Z" transform="translate(-431.95 -469.86)"/><path d="M486.29,516.43v13.78H484.1v-11l-2.88.81v-2.2l2.88-.81ZM501,524.58v-1.74a5.92,5.92,0,0,0-11.83,0v1.74a5.87,5.87,0,0,0,5.87,5.87h.09A5.87,5.87,0,0,0,501,524.58Zm-2.2-1.74v1.74a3.67,3.67,0,0,1-3.67,3.67h-.09a3.67,3.67,0,0,1-3.67-3.67v-1.74a3.72,3.72,0,0,1,7.43,0Z" transform="translate(-431.95 -469.86)"/><path d="M465.5,516.43v13.78h-2.19v-11l-2.88.81v-2.2l2.88-.81Zm14.72,8.15v-1.74a5.92,5.92,0,0,0-11.83,0v1.74a5.87,5.87,0,0,0,5.87,5.87h.09A5.87,5.87,0,0,0,480.22,524.58Zm-2.2-1.74v1.74a3.67,3.67,0,0,1-3.67,3.67h-.09a3.67,3.67,0,0,1-3.67-3.67v-1.74a3.72,3.72,0,0,1,7.43,0Z" transform="translate(-431.95 -469.86)"/><path d="M506.74,516.43v13.78h-2.19v-11l-2.88.81v-2.2l2.88-.81Zm14.72,8.15v-1.74a5.92,5.92,0,0,0-11.83,0v1.74a5.87,5.87,0,0,0,5.87,5.87h.09A5.87,5.87,0,0,0,521.46,524.58Zm-2.2-1.74v1.74a3.67,3.67,0,0,1-3.67,3.67h-.09a3.67,3.67,0,0,1-3.67-3.67v-1.74a3.72,3.72,0,0,1,7.43,0Z" transform="translate(-431.95 -469.86)"/><path d="M484.86,483.17V497h-2.19V486l-2.88.81v-2.2l2.88-.81Zm14.71,8.15v-1.75a5.92,5.92,0,0,0-11.83,0v1.75a5.88,5.88,0,0,0,5.87,5.87h.09A5.88,5.88,0,0,0,499.57,491.32Zm-2.2-1.75v1.75A3.67,3.67,0,0,1,493.7,495h-.09a3.68,3.68,0,0,1-3.67-3.67v-1.75a3.72,3.72,0,0,1,7.43,0Z" transform="translate(-431.95 -469.86)"/><path d="M464.07,483.17V497h-2.19V486l-2.88.81v-2.2l2.88-.81Zm14.71,8.15v-1.75a5.92,5.92,0,0,0-11.83,0v1.75a5.88,5.88,0,0,0,5.87,5.87h.09A5.88,5.88,0,0,0,478.78,491.32Zm-2.2-1.75v1.75a3.67,3.67,0,0,1-3.67,3.67h-.09a3.68,3.68,0,0,1-3.67-3.67v-1.75a3.72,3.72,0,0,1,7.43,0Z" transform="translate(-431.95 -469.86)"/><path d="M505.31,483.17V497h-2.19V486l-2.88.81v-2.2l2.88-.81ZM520,491.32v-1.75a5.92,5.92,0,0,0-11.83,0v1.75a5.88,5.88,0,0,0,5.87,5.87h.09A5.88,5.88,0,0,0,520,491.32Zm-2.2-1.75v1.75a3.67,3.67,0,0,1-3.67,3.67h-.09a3.68,3.68,0,0,1-3.67-3.67v-1.75a3.72,3.72,0,0,1,7.43,0Z" transform="translate(-431.95 -469.86)"/></g><path class="cls-2" d="M568.54,516a37.76,37.76,0,1,1-26.95-36.21,10.12,10.12,0,0,0-5.39,9,10.15,10.15,0,0,0,10.15,10.15,9.47,9.47,0,0,0,1.92-.19,10.14,10.14,0,0,0,8.23-10c0-.14,0-.27,0-.42A37.73,37.73,0,0,1,568.54,516Z" transform="translate(-431.95 -469.86)"/><path d="M555.37,516a24.63,24.63,0,1,1-18.6-23.87,10.16,10.16,0,0,0,9.57,6.77,9.33,9.33,0,0,0,1.92-.19A24.53,24.53,0,0,1,555.37,516Z" transform="translate(-431.95 -469.86)"/><polygon class="cls-2" points="91 42.84 80.38 42.84 80.38 38.84 88.81 38.84 94.56 29.89 165.88 29.89 172.28 19.94 205.17 19.94 205.17 23.94 174.46 23.94 168.07 33.89 96.75 33.89 91 42.84"/><polygon class="cls-2" points="112.97 20.9 102.35 20.9 102.35 16.9 110.78 16.9 116.53 7.95 183.03 7.95 183.03 11.95 118.72 11.95 112.97 20.9"/><path class="cls-2" d="M507.66,516.5a5.8,5.8,0,1,0-5.79-5.8,5.8,5.8,0,0,0,5.79,5.8Zm0-9.2a3.41,3.41,0,1,1-3.4,3.4,3.4,3.4,0,0,1,3.4-3.4Z" transform="translate(-431.95 -469.86)"/><polygon class="cls-2" points="98.94 55.56 82.72 55.56 82.72 51.56 96.76 51.56 102.5 42.6 184.25 42.6 190.05 33.57 193.42 35.74 186.43 46.6 104.69 46.6 98.94 55.56"/><path class="cls-2" d="M510.05,529.21a5.8,5.8,0,1,0-5.79-5.79,5.8,5.8,0,0,0,5.79,5.79Zm0-9.19a3.4,3.4,0,1,1-3.4,3.4,3.41,3.41,0,0,1,3.4-3.4Z" transform="translate(-431.95 -469.86)"/><polygon class="cls-2" points="141.96 66.35 104.1 66.35 104.1 62.35 139.77 62.35 145.52 53.39 180.41 53.39 180.41 57.39 147.7 57.39 141.96 66.35"/><polygon class="cls-2" points="155.65 75.84 117.79 75.84 117.79 71.84 153.46 71.84 158.62 63.81 161.98 65.97 155.65 75.84"/><polygon class="cls-2" points="86.82 63.04 73.77 63.04 73.77 67.04 84.64 67.04 89.79 75.08 93.16 72.92 86.82 63.04"/><path class="cls-2" d="M531.43,540a5.8,5.8,0,1,0-5.79-5.79,5.8,5.8,0,0,0,5.79,5.79Zm0-9.19a3.4,3.4,0,1,1-3.4,3.4,3.41,3.41,0,0,1,3.4-3.4Z" transform="translate(-431.95 -469.86)"/><circle cx="186.88" cy="9.83" r="6.27"/><circle cx="209.27" cy="21.87" r="6.27"/><circle cx="192.86" cy="33.06" r="6.27"/><circle cx="181.05" cy="55.29" r="6.27"/><circle cx="159.94" cy="65.11" r="6.27"/><path d="M578.14,478.08c-3-.71-6-1.34-9.09-1.81s-6.1-.81-9.11-1-6.06-.16-9.09,0-6,.38-9.05.7c-6,.71-12,1.7-17.93,3s-11.89,2.65-17.66,4.37a170.39,170.39,0,0,0-33.11,13.5A164.15,164.15,0,0,0,458,506.16c-2.41,1.7-4.78,3.48-7.08,5.31l0,0c1.81,1.68,3.56,3.42,5.31,5.19s3.69,3.62,5.62,5.34,3.87,3.46,5.9,5.1a127.57,127.57,0,0,0,12.64,9.29,114.43,114.43,0,0,0,13.82,7.76,104.89,104.89,0,0,0,30.69,9.2,129.81,129.81,0,0,0,32.55.31,127.13,127.13,0,0,1-32.85,3.11,147.57,147.57,0,0,1-33.18-5,131.15,131.15,0,0,1-31.6-13.16c-2.49-1.46-4.92-3-7.32-4.63s-4.71-3.35-7-5.13A59.37,59.37,0,0,1,439,523a40.53,40.53,0,0,1-5.38-6.84l-.56-.91a7.84,7.84,0,0,1,1.33-9.8,67.8,67.8,0,0,1,7.64-6q4-2.76,8.14-5.28a178,178,0,0,1,17.1-9.06,162.55,162.55,0,0,1,36.52-11.68c6.25-1.21,12.54-2.06,18.74-2.71a159.93,159.93,0,0,1,19-.88,98.2,98.2,0,0,1,18.87,2.05,78.85,78.85,0,0,1,9.08,2.62A84,84,0,0,1,578.14,478.08Z" transform="translate(-431.95 -469.86)"/></svg>